<?xml version="1.0" encoding="UTF-8" standalone="no"?>
<svg
   version="1.1"
   viewBox="0 0 306.4821 93.074541"
   id="svg1177"
   sodipodi:docname="stick.svg"
   xml:space="preserve"
   inkscape:version="1.4.4 (dcaf3e7, 2026-05-05)"
   width="306.48209"
   height="93.074539"
   inkscape:export-filename="..\Desktop\excavator\excavator_images\boom.svg"
   inkscape:export-xdpi="96"
   inkscape:export-ydpi="96"
   xmlns:inkscape="http://www.inkscape.org/namespaces/inkscape"
   xmlns:sodipodi="http://sodipodi.sourceforge.net/DTD/sodipodi-0.dtd"
   xmlns="http://www.w3.org/2000/svg"
   xmlns:svg="http://www.w3.org/2000/svg"><defs
     id="defs1177" /><sodipodi:namedview
     id="namedview1177"
     pagecolor="#505050"
     bordercolor="#eeeeee"
     borderopacity="1"
     inkscape:showpageshadow="0"
     inkscape:pageopacity="0"
     inkscape:pagecheckerboard="0"
     inkscape:deskcolor="#505050"
     inkscape:zoom="3.223594"
     inkscape:cx="159.75957"
     inkscape:cy="116.17468"
     inkscape:window-width="2560"
     inkscape:window-height="1377"
     inkscape:window-x="-8"
     inkscape:window-y="-8"
     inkscape:window-maximized="1"
     inkscape:current-layer="layer7"
     showguides="true"><inkscape:page
       x="3.148244e-15"
       y="2.9488649e-07"
       width="306.48212"
       height="93.074539"
       id="page2"
       margin="0"
       bleed="0" /><sodipodi:guide
       position="-68.896655,498.81648"
       orientation="0,-1"
       id="guide1"
       inkscape:locked="false" /></sodipodi:namedview><g
     inkscape:groupmode="layer"
     id="layer7"
     inkscape:label="stick"
     transform="translate(13.589541,-372.03283)"
     style="display:inline"><g
       id="g1178"
       transform="matrix(-1,0,0,1,1085.376,-9.6559883)"
       inkscape:export-filename="..\Desktop\excavator\excavator_images\stick.svg"
       inkscape:export-xdpi="96"
       inkscape:export-ydpi="96"><path
         fill="#edb570"
         d="m 1098.7338,400.24556 -0.9733,-0.88373 -0.8673,-1.38187 q -2.2494,-3.4049 -4.5935,-5.04419 -5.1513,-3.6154 -15.1922,-9.18037 a 5.26,5.27 58.62746 0 0 -2.6841,-0.65211 q -12.3483,0.40933 -14.2233,0.59632 c -4.437,0.43449 -9.3391,1.28667 -14.0174,1.00091 q -0.5609,-0.0385 -2.8588,0.0634 -12.8009,0.56332 -33.5143,1.92811 c -6.4481,0.42386 -14.14206,0.46748 -20.09977,1.03912 q -7.81056,0.75552 -15.02627,1.05251 c -10.51172,0.43097 -15.15943,0.33059 -23.94973,1.40909 q -4.47137,0.5432 -10.89728,0.61166 -7.4132,0.0809 -13.50342,0.51312 -10.75341,0.76756 -13.507,1.00137 -0.53198,0.0387 -1.57746,0.0548 -7.85862,0.15711 -49.32749,2.49067 a 6.95,6.1 43.22746 0 1 -1.15731,-0.0404 q -3.46357,-0.47922 -6.96211,0.0129 a 0.98,1 66.52746 0 1 -0.89293,-0.34407 l -0.50848,-0.59686 224.75575,-12.20231 a 2.78,2.75 60.32746 0 1 1.73,0.48373 l 19.7542,13.6148 a 0.76,0.74 19.52746 0 1 0.3236,0.66351 z"
         id="path693" /><path
         fill="#f8b149"
         d="m 1096.8932,397.97996 -5.9228,-4.54107 a 1.39,2.12 88.72746 0 0 -0.2773,-0.17325 l -14.5471,-7.09884 a 1.84,1.78 56.32746 0 0 -0.8433,-0.18395 c -8.9648,0.19079 -18.053,1.55958 -26.1416,1.91163 -10.4252,0.46847 -16.5545,0.52682 -25.4046,1.50084 q -9.9357,1.0906 -12.4352,1.0764 c -13.83672,-0.0587 -27.77049,2.94916 -41.89977,2.44838 q -1.6291,-0.0553 -16.49114,1.39406 -6.87434,0.66898 -14.4332,0.83811 c -8.41585,0.17679 -16.4108,1.38728 -25.04274,1.76156 -9.14745,0.40164 -21.76008,1.66107 -28.27779,2.07213 q -16.45753,1.05514 -32.6786,2.15379 c -11.73759,0.80213 -21.40915,2.29364 -32.14745,3.6823 q -5.15468,0.6619 -8.46886,1.59781 -4.60391,1.30249 -8.26136,2.46281 a 2.94,2.93 86.62746 0 0 -1.97932,2.23846 q -1.33577,7.10216 -2.08102,9.86251 c -1.39869,5.17809 -0.49483,8.39291 2.65019,12.32214 q 1.63181,2.03304 0.71636,3.64764 l -9.55699,-8.89825 a 2.81,2.79 27.22746 0 1 -0.83311,-2.58347 l 3.7689,-18.95616 a 1.1,1.1 0 0 1 0.73351,-0.82125 q 3.13793,-1.03305 9.8115,-3.93186 c 2.78031,-1.19952 6.6435,-2.14942 10.21047,-2.70088 q 0.86612,-0.13539 30.18313,-4.61179 2.55976,-0.39171 5.15634,-0.55375 l 0.50848,0.59686 a 0.98,1 66.52746 0 0 0.89293,0.34407 q 3.49854,-0.49215 6.96211,-0.0129 a 6.95,6.1 43.22746 0 0 1.15731,0.0404 q 41.46887,-2.33356 49.32749,-2.49067 1.04548,-0.0161 1.57746,-0.0548 2.75359,-0.23381 13.507,-1.00137 6.09022,-0.43221 13.50342,-0.51312 6.42591,-0.0685 10.89728,-0.61166 c 8.7903,-1.0785 13.43801,-0.97812 23.94973,-1.40909 q 7.21571,-0.29699 15.02627,-1.05251 c 5.95771,-0.57164 13.65167,-0.61526 20.09977,-1.03912 q 20.7134,-1.36479 33.5143,-1.92811 2.2979,-0.10197 2.8588,-0.0634 c 4.6783,0.28576 9.5804,-0.56642 14.0174,-1.00091 q 1.875,-0.18699 14.2233,-0.59632 a 5.26,5.27 58.62746 0 1 2.6841,0.65211 q 10.0409,5.56497 15.1922,9.18037 2.3441,1.63929 4.5935,5.04419 z"
         id="path694" /><path
         fill="#de9342"
         d="m 1031.5494,464.56813 q 2.8908,-2.30798 4.7873,-3.08058 25.283,-10.29478 50.8617,-19.5789 0.077,-0.0289 4.2988,-2.02732 a 1.34,1.31 88.82746 0 0 0.6522,-0.69241 q 1.2132,-2.99777 1.905,-8.86676 1.8388,-15.50075 3.7061,-30.96033 l 0.9733,0.88373 q -1.6238,16.67632 -3.1389,33.38701 c -0.3565,4.04697 -1.4556,7.24548 -5.5344,8.78121 q -23.7857,8.99576 -33.9081,13.09329 -0.9261,0.38319 -1.699,0.98869 a 1.01,1.18 20.12746 0 1 -0.3685,0.20539 z"
         id="path695" /><path
         fill="#f18d22"
         d="m 1096.8932,397.97996 0.8673,1.38187 q -1.8673,15.45958 -3.7061,30.96033 -0.6918,5.86899 -1.905,8.86676 a 1.34,1.31 88.82746 0 1 -0.6522,0.69241 q -4.2215,1.99839 -4.2988,2.02732 -25.5787,9.28412 -50.8617,19.5789 -1.8965,0.7726 -4.7873,3.08058 -29.9532,8.01174 -39.65708,10.10844 -1.39332,0.30439 -5.50203,-0.45892 -41.18184,-7.66497 -83.0935,-15.3492 -6.37836,-1.16662 -11.56,-2.97578 a 2.22,2.25 54.92746 0 0 -0.85099,-0.14223 q -0.83485,0.005 -1.71476,-0.21491 -5.80287,-1.44177 -14.01516,-2.99622 -32.60448,-6.17994 -46.33357,-8.97252 c -3.87337,-0.79191 -8.28569,-2.71833 -12.55819,-3.49021 q -3.68833,-0.66439 -10.94815,-2.51088 -1.23074,-0.30559 -2.38937,-0.61228 0.91545,-1.6146 -0.71636,-3.64764 c -3.14502,-3.92923 -4.04888,-7.14405 -2.65019,-12.32214 q 0.74525,-2.76035 2.08102,-9.86251 a 2.94,2.93 86.62746 0 1 1.97932,-2.23846 q 3.65745,-1.16032 8.26136,-2.46281 3.31418,-0.93591 8.46886,-1.59781 c 10.7383,-1.38866 20.40986,-2.88017 32.14745,-3.6823 q 16.22107,-1.09865 32.6786,-2.15379 c 6.51771,-0.41106 19.13034,-1.67049 28.27779,-2.07213 8.63194,-0.37428 16.62689,-1.58477 25.04274,-1.76156 q 7.55886,-0.16913 14.4332,-0.83811 14.86204,-1.44941 16.49114,-1.39406 c 14.12928,0.50078 28.06305,-2.50709 41.89977,-2.44838 q 2.4995,0.0142 12.4352,-1.0764 c 8.8501,-0.97402 14.9794,-1.03237 25.4046,-1.50084 8.0886,-0.35205 17.1768,-1.72084 26.1416,-1.91163 a 1.84,1.78 56.32746 0 1 0.8433,0.18395 l 14.5471,7.09884 a 1.39,2.12 88.72746 0 1 0.2773,0.17325 z"
         id="path697" /><g
         stroke-width="2"
         fill="none"
         stroke-linecap="butt"
         id="g702"
         transform="rotate(55.42746,950.94314,419.10235)"><path
           stroke="#ae885e"
           vector-effect="non-scaling-stroke"
           d="m 1024.7,328.56 q -4.39,-9.44 -14.06,-6.55 a 3.11,2.78 -66.6 0 0 -0.78,0.36 c -4.73,3.12 -4.85,7.2 -3.74,12.04 q 1.67,7.27 9.85,7.72"
           id="path698" /><path
           stroke="#be7536"
           vector-effect="non-scaling-stroke"
           d="m 885.92,539.07 q -0.28,0 -0.55,0.01"
           id="path699" /><path
           stroke="#8e6951"
           vector-effect="non-scaling-stroke"
           d="m 885.37,539.08 q 7.25,-14.28 -5.93,-18.85 -2.13,-0.74 -6.82,0.01"
           id="path700" /><path
           stroke="#be7536"
           vector-effect="non-scaling-stroke"
           d="m 872.62,520.24 0.52,-1.02"
           id="path701" /><path
           stroke="#ae885e"
           vector-effect="non-scaling-stroke"
           d="m 872.62,520.24 q -3.2,2.92 -4.11,4.05 c -3.62,4.46 -2.85,12.69 2.69,15.52 q 7.22,3.69 14.17,-0.73"
           id="path702" /></g><path
         fill="#bf6a27"
         d="m 835.43211,414.018 a 0.87,0.88 78.82746 0 1 0.762,-1.13237 q 4.87271,-0.41901 9.66004,0.64175 a 3.16,3.06 48.22746 0 0 0.95803,0.0684 c 7.54651,-0.60998 15.86855,-0.39421 22.57698,-0.66952 q 45.05707,-1.86736 82.64318,-3.26181 8.39148,-0.31788 16.72132,-0.49611 18.23203,-0.38347 28.19632,-1.23873 7.60412,-0.6497 13.80722,-1.49973 a 3.75,3.4 41.82746 0 1 0.943,-0.006 c 4.0322,0.47602 7.5317,-0.49048 12.1074,-0.74126 q 12.2693,-0.68272 15.1244,-0.80437 c 10.7332,-0.46213 23.6682,-2.22303 33.3572,-2.40279 q 2.5679,-0.0451 5.7025,-0.74801 a 1.02,1.02 0 0 1 1.2413,0.99056 l -0.092,29.13773 a 0.59,0.59 0 0 1 -0.891,0.50469 l -0.183,-0.17748 a 4.3,4.34 21.22746 0 1 -1.389,-3.19625 l 0.065,-23.16803 a 0.94,0.94 0 0 0 -1.0573,-0.93513 q -8.5647,1.1416 -15.5935,1.32198 -9.9707,0.26454 -15.6891,1.05995 -4.4482,0.61218 -20.2809,0.81168 -8.6193,0.11057 -31.33069,2.68224 -6.79801,0.76211 -12.04724,0.68763 c -6.16498,-0.0992 -11.62944,0.80047 -18.27455,1.04429 q -20.54822,0.74091 -21.45462,0.78261 -26.62397,1.21173 -53.49016,1.82527 c -13.17094,0.30828 -25.27237,0.89966 -37.51866,0.91077 a 1.93,2.58 58.52746 0 1 -0.4028,-0.0382 l -10.64663,-1.84426 a 1.44,1.44 0 0 0 -1.6544,1.72307 c 1.2643,5.90543 1.1016,14.25161 -3.75397,18.48438 a 0.42,0.42 45 0 1 -0.65158,-0.52254 l 2.73792,-5.0323 a 0.65,0.35 83.62746 0 0 0.0534,-0.13396 q 2.10108,-7.1195 -0.25583,-14.62801 z"
         id="path714" /><path
         fill="#7e7c79"
         d="m 1067.3497,428.45618 q -7.5737,8.02485 -16.1274,0.51193 -4.2712,-6.99083 0.7673,-12.49128 c 3.3554,-3.66043 6.783,-5.87682 12.0361,-3.75254 a 2.78,3.11 78.82746 0 1 0.739,0.43798 q 7.8669,6.32243 2.585,15.29391 z"
         id="path724" /><path
         fill="#f8b149"
         d="m 851.34657,438.57367 c 4.01559,-0.0591 8.36463,1.00011 12.59752,1.36208 q 4.98852,0.43632 7.28377,0.70054 0.14732,0.0199 0.56113,0.23268 a 2.62,2.54 60.02746 0 0 0.99741,0.28421 c 4.82528,0.4638 9.92905,1.71939 13.94274,2.25672 q 14.92359,2.00583 23.61334,3.58344 5.74112,1.03496 19.20508,3.00226 11.32883,1.65345 19.20932,3.09651 1.69117,0.30403 3.4797,0.62599 8.04116,1.42948 36.23252,6.35151 a 5.74,5.83 42.62746 0 0 2.58323,-0.12856 q 33.49917,-9.3867 55.74127,-16.67497 1.8132,-0.59379 3.8982,-1.37484 12.5207,-4.70588 24.9638,-9.77117 a 1.77,1.76 56.42746 0 1 1.9199,0.38928 l 0.1351,0.12551 a 0.6,0.6 0 0 1 -0.1843,1.00142 l -38.8803,15.34179 a 10.67,10.76 30.92746 0 1 -2.4894,0.63472 q -3.9811,0.49681 -7.2442,1.50682 -4.8643,1.50622 -6.6103,1.96861 -10.1295,2.73014 -11.7316,3.34842 -11.20683,4.28621 -19.0094,5.74061 a 3.93,3.88 48.62746 0 1 -1.95211,-0.13637 c -4.44115,-1.45719 -8.81137,-1.19016 -13.18289,-2.08812 q -9.91502,-2.06911 -22.60032,-4.08723 -16.28907,-2.59505 -46.73251,-7.85963 -20.63699,-3.58213 -27.24513,-4.35964 -12.29376,-1.44997 -18.94595,-2.92582 c -2.90856,-0.6431 -6.15561,-0.9315 -9.50736,-1.35419 a 0.31,0.3 3.6274601 0 1 -0.26815,-0.30099 l 0.007,-0.27195 a 0.22,0.22 45 0 1 0.21298,-0.21964 z"
         id="path725" /><path
         fill="#b8b8b8"
         d="m 1061.0614,417.46327 c -1.3767,-0.41151 -2.2575,0.38983 -3.4007,0.54613 a 0.25,0.25 0 0 1 -0.1982,-0.44631 q 1.9532,-1.58898 3.8816,-1.01121 1.9145,0.5752 2.6892,2.96818 a 0.25,0.25 0 0 1 -0.4148,0.26158 c -0.8744,-0.75766 -1.1666,-1.90429 -2.5571,-2.31837 z"
         id="path728" /><path
         fill="#9e5629"
         d="m 815.26344,433.63729 q -0.15888,-0.23056 -0.32033,-0.4472 15.87228,-2.13346 12.15628,-15.57923 -0.59935,-2.17377 -3.87824,-5.60997 l 1.13495,-0.15063 c 7.66376,4.30067 8.38482,14.9161 1.14471,20.11206 q -4.5569,3.27396 -10.23737,1.67497 z"
         id="path836" /><path
         fill="#7e7c79"
         d="m 814.94311,433.19009 q -7.58324,-3.21456 -8.64184,-11.25346 c -0.81342,-6.16756 5.52629,-11.4717 11.25286,-11.02178 q 1.44683,0.10808 5.66702,1.08604 3.27889,3.4362 3.87824,5.60997 3.716,13.44577 -12.15628,15.57923 z"
         id="path839" /><path
         fill="#a39b90"
         d="m 817.27109,417.57085 q -3.18951,3.26678 -2.13969,7.13397 a 0.66,0.66 0 0 1 -1.21541,0.50969 l -1.78901,-3.05417 a 1.61,1.61 0 0 1 0.1545,-1.8553 q 1.31313,-1.54861 4.39289,-3.4767 a 0.48,0.48 0 0 1 0.59672,0.74251 z"
         id="path843" /><circle
         style="fill:#7e7c79;fill-opacity:1"
         id="path1"
         cx="-948.99866"
         cy="-632.77924"
         r="0.69797873"
         transform="matrix(-0.56744918,-0.82340842,-0.82340842,0.56744918,0,0)"
         inkscape:label="boom-pivot-point" /><circle
         style="display:inline;fill:#7e7c79;fill-opacity:1"
         id="path1-9"
         cx="-810.33618"
         cy="-433.45227"
         transform="matrix(-0.56744918,-0.82340842,-0.82340842,0.56744918,0,0)"
         inkscape:label="head-jaw-pivot-point"
         r="0.69797873" /></g></g></svg>
